<?xml version="1.0" encoding="utf-8"?>
<!-- Generator: Adobe Illustrator 19.2.0, SVG Export Plug-In . SVG Version: 6.00 Build 0)  -->
<svg version="1.1" id="Layer_1" xmlns="http://www.w3.org/2000/svg" xmlns:xlink="http://www.w3.org/1999/xlink" x="0px" y="0px"
	 viewBox="0 0 96.167 19.775" enable-background="new 0 0 96.167 19.775" xml:space="preserve">
<g>
	<path fill="#FFFFFF" d="M0.659,0.779h7.098c5.72,0,9.672,3.926,9.672,9.048V9.88c0,5.122-3.952,9.1-9.672,9.1H0.659V0.779z
		 M7.757,15.365c3.276,0,5.486-2.21,5.486-5.434V9.88c0-3.225-2.21-5.486-5.486-5.486H4.663v10.972H7.757z"/>
	<path fill="#FFFFFF" d="M22.551,0.779H36.28v3.562h-9.75v3.692h8.581v3.562h-8.581v3.822h9.88v3.562H22.551V0.779z"/>
	<path fill="#FFFFFF" d="M40.283,16.328l2.366-2.835c1.638,1.353,3.354,2.211,5.434,2.211c1.639,0,2.627-0.65,2.627-1.717v-0.052
		c0-1.014-0.624-1.534-3.667-2.314c-3.667-0.936-6.033-1.949-6.033-5.563V6.005c0-3.302,2.652-5.486,6.371-5.486
		c2.652,0,4.915,0.832,6.76,2.314l-2.08,3.016c-1.612-1.118-3.199-1.794-4.733-1.794c-1.533,0-2.34,0.702-2.34,1.586v0.052
		c0,1.196,0.78,1.586,3.926,2.392c3.693,0.962,5.773,2.288,5.773,5.46v0.052c0,3.614-2.756,5.643-6.682,5.643
		C45.249,19.24,42.468,18.277,40.283,16.328z"/>
	<path fill="#FFFFFF" d="M59.732,0.779h7.098c5.721,0,9.673,3.926,9.673,9.048V9.88c0,5.122-3.952,9.1-9.673,9.1h-7.098V0.779z
		 M66.829,15.365c3.276,0,5.486-2.21,5.486-5.434V9.88c0-3.225-2.21-5.486-5.486-5.486h-3.094v10.972H66.829z"/>
	<path fill="#FFFFFF" d="M81.624,0.779h13.729v3.562h-9.751v3.692h8.58v3.562h-8.58v3.822h9.881v3.562H81.624V0.779z"/>
</g>
</svg>
